<?xml version="1.0" encoding="utf-8"?>
<!-- Generator: Adobe Illustrator 21.1.0, SVG Export Plug-In . SVG Version: 6.00 Build 0)  -->
<svg version="1.1" id="Layer_1" xmlns="http://www.w3.org/2000/svg" xmlns:xlink="http://www.w3.org/1999/xlink" x="0px" y="0px"
	 viewBox="0 0 514.1 412.1" style="enable-background:new 0 0 514.1 412.1;" xml:space="preserve">
<style type="text/css">
	.st0{fill:#FFFFFF;}
</style>
<path class="st0" d="M257.1,0C115.1,0,0,115.2,0,257.3c0,55.9,18.3,110.3,51.9,154.9l72.7-3.2c-15.8-4.3-31.1-10.1-45.8-17.2
	l43.8-107.1c38.4,20.2,84.2,33,124.7,33c12.8,0,17.5-2.7,17.5-8.1s-7.4-8.1-37-13.5C126.7,277.2,97,246.2,97,186.9
	C97,111.5,155.7,65,256.7,65c50.2,0,100,9.3,146.9,27.5l-37,107.8c-37-18.9-76.8-29.6-110.5-29.6c-13.5,0-18.9,2.7-18.9,8.7
	s8.1,6.7,39.7,13.5c89.6,19.6,129.4,45.2,129.4,110.5c0,42.3-18.3,74.7-52.4,95.3l121.2-5.4c75.2-120.5,38.5-279.1-82-354.3
	C352.3,13.5,305.2,0,257.1,0z"/>
</svg>
