<?xml version="1.0" encoding="utf-8"?>
<!-- Generator: Adobe Illustrator 22.1.0, SVG Export Plug-In . SVG Version: 6.00 Build 0)  -->
<svg version="1.1" id="Layer_1" xmlns="http://www.w3.org/2000/svg" xmlns:xlink="http://www.w3.org/1999/xlink" x="0px" y="0px"
	 viewBox="0 0 352.4 100.1" style="enable-background:new 0 0 352.4 100.1;" xml:space="preserve">
<style type="text/css">
	.st0{fill:#FFFFFF;}
</style>
<g id="Layer_8_copy_2">
	<path class="st0" d="M0,0v100.1h98.2V0H0z M72.3,24.4l-3.1,4.1c-0.1,0.1-0.2,0.2-0.4,0.2H37.6c-0.7,0-1,0.4-1.1,0.6
		s-0.3,0.7,0.1,1.1L48.9,47l7.8-10.5c0.1-0.1,0.2-0.2,0.4-0.2h5.4c0.2,0,0.3,0.1,0.4,0.2s0.1,0.3,0,0.5l-10,13.5l13.3,17.9
		c1.4,1.9,1.6,4.3,0.4,6.4c-1.1,2-3.4,3.3-5.8,3.3H26.5c-0.2,0-0.3-0.1-0.4-0.2c-0.1-0.1-0.1-0.3,0-0.5l3.1-4.1
		c0.1-0.1,0.2-0.2,0.4-0.2h31c0.7,0,1-0.4,1.1-0.6s0.3-0.7-0.1-1.1L49.3,54.8l-7.8,10.5c-0.1,0.1-0.2,0.2-0.4,0.2h-5.4
		c-0.2,0-0.3-0.1-0.4-0.2s-0.1-0.3,0-0.5l10-13.5L32,33.4c-1.4-1.9-1.6-4.3-0.4-6.4c1.1-2,3.4-3.3,5.8-3.3h34.3
		c0.2,0,0.3,0.1,0.4,0.2C72.4,24,72.4,24.2,72.3,24.4z"/>
	<path class="st0" d="M262.6,18.8L262.6,18.8v21.1h-0.2c-1.2-1.4-2.8-2.5-4.7-3.2c-2-0.7-3.9-1.1-5.9-1.1c-3.1,0-5.7,0.6-8.1,1.9
		c-2.3,1.2-4.3,2.9-5.8,4.9c-1.6,2-2.7,4.3-3.5,6.8s-1.2,5.1-1.2,7.8c0,2.7,0.4,5.3,1.2,7.9c0.8,2.6,2,4.9,3.5,6.9
		c1.6,2,3.5,3.7,5.8,4.9c2.3,1.2,5,1.9,8.1,1.9c2.5,0,4.9-0.5,7.2-1.4c2.3-1,4-2.3,5.2-3.9h0.2v4.3l0,0h16.2l0,0V18.9l0,0
		L262.6,18.8L262.6,18.8z M261.6,61.8c-1.3,1.3-3,2-5.1,2c-2.2,0-3.8-0.7-5-2c-1.1-1.3-1.7-3-1.7-4.9c0-1.8,0.6-3.4,1.7-4.7
		c1.1-1.3,2.8-2,5-2c2.1,0,3.8,0.7,5.1,2c1.3,1.3,1.9,2.9,1.9,4.7C263.5,58.9,262.8,60.5,261.6,61.8z M213.7,36.7L213.7,36.7v21.6
		c0,1.8-0.4,3.2-1.1,4.2c-0.8,1-1.7,1.4-2.9,1.4c-1.3,0-2.3-0.4-2.9-1.2c-0.7-0.8-1-2.3-1-4.3V36.8l0,0h-17.9l0,0v24.8
		c0,2,0.2,4.1,0.7,6.1c0.4,2,1.2,3.9,2.3,5.5c1.1,1.6,2.6,2.9,4.5,4c1.9,1,4.2,1.5,7.1,1.5c2.6,0,5-0.6,7-1.7s3.6-2.4,4.6-3.9h0.2
		v4.5l0,0h17.3l0,0V36.8l0,0h-17.9V36.7z M175.1,36.7L175.1,36.7v-9.2l0,0h-17.4l0,0v9.2l0,0H152l0,0V40c-2.3-1.4-4.8-2.6-7.6-3.4
		c-3.1-0.9-6.2-1.4-9.4-1.4c-1.9,0-3.8,0.3-5.9,0.8s-4,1.4-5.8,2.6s-3.3,2.7-4.4,4.5c-1.2,1.9-1.7,4.1-1.7,6.8c0,2,0.4,3.7,1.1,5.1
		s1.6,2.6,2.8,3.6c1.1,1,2.3,1.8,3.7,2.4c1.3,0.6,2.7,1,4,1.4c2.4,0.6,4,1,5,1.4s1.4,0.9,1.4,1.6c0,0.6-0.3,1-0.8,1.3
		c-0.5,0.2-1.1,0.3-1.7,0.3c-1.6,0-3.2-0.3-4.9-1c-1.7-0.7-3.1-1.6-4.4-2.8l0,0l-8.8,10.2l0,0c2.5,1.9,5.4,3.3,8.8,4.3
		s6.8,1.5,10.4,1.5c1.9,0,3.9-0.2,6-0.7s4.1-1.3,5.8-2.4c1.8-1.1,3.2-2.6,4.4-4.5c1.2-1.9,1.7-4.2,1.7-6.9c0-2-0.4-3.7-1.1-5.1
		s-1.7-2.7-2.9-3.7c-1.2-1-2.6-1.8-4.1-2.5c-1.5-0.6-3.1-1.1-4.7-1.4c-2.3-0.5-3.8-0.8-4.4-1.1c-0.6-0.3-1-0.7-1-1.2
		c0-0.7,0.3-1.1,0.9-1.4c0.6-0.2,1.3-0.3,2.2-0.3c1.3,0,2.6,0.2,4,0.7c1.3,0.5,2.7,1.1,4,1.9l0,0l7.6-9.1l0,0v8.2l0,0h5.7l0,0v14.6
		c0,5,1.3,8.6,4,11c2.6,2.4,6.7,3.5,12.2,3.5c1.9,0,3.6-0.1,5.3-0.4c1.7-0.3,3-0.6,3.9-1l0,0V65.1c-0.4,0.1-0.9,0.2-1.5,0.3
		c-0.6,0.1-1.2,0.2-1.8,0.2c-1.5,0-2.7-0.3-3.5-1c-0.9-0.7-1.3-2-1.3-4V49.7l0,0h8.9l0,0V36.9l0,0h-9V36.7z M350.5,47.7
		c-1.3-2.7-3-5-5.1-6.9s-4.6-3.3-7.5-4.2c-2.8-1-5.8-1.4-8.9-1.4c-3.1,0-6,0.5-8.8,1.4c-2.8,1-5.3,2.4-7.4,4.2
		c-2.1,1.9-3.8,4.2-5.1,6.9c-1.3,2.7-1.9,5.8-1.9,9.3s0.6,6.7,1.9,9.4c1.3,2.7,3,5.1,5.1,6.9c2.1,1.9,4.6,3.3,7.4,4.3
		c2.8,1,5.8,1.5,8.8,1.5c3.1,0,6.1-0.5,8.9-1.5c2.8-1,5.3-2.4,7.5-4.3c2.1-1.9,3.9-4.2,5.1-6.9c1.3-2.7,1.9-5.9,1.9-9.4
		C352.4,53.5,351.8,50.4,350.5,47.7z M334,61.9c-1.2,1.3-2.8,2-4.8,2s-3.6-0.7-4.8-2c-1.2-1.4-1.9-3-1.9-4.9c0-1.4,0.4-2.7,1.2-3.9
		c1.3-1.9,3.1-2.8,5.4-2.8c2,0,3.6,0.7,4.9,2c1.3,1.3,1.9,2.9,1.9,4.7C335.8,58.9,335.2,60.6,334,61.9z M284.7,61.8L284.7,61.8v15.7
		l0,0h17.9l0,0V36.8l0,0L284.7,61.8z M300.2,18.4c-0.9-0.8-1.8-1.5-2.9-2c-1.1-0.5-2.3-0.7-3.5-0.7c-0.5,0-1.1,0.1-1.6,0.2
		c-0.7,0.1-1.4,0.3-2.1,0.6c-1.1,0.5-2.1,1.2-3,2s-1.5,1.8-2,2.9s-0.7,2.3-0.7,3.5c0,1.3,0.2,2.5,0.7,3.6s1.2,2.1,2,2.9
		c0.9,0.8,1.9,1.4,3,1.9s2.4,0.7,3.6,0.7c1.2,0,2.4-0.2,3.5-0.7s2.1-1.1,2.9-1.9c0.9-0.8,1.5-1.8,2-2.9s0.7-2.3,0.7-3.6
		c0-1.2-0.2-2.4-0.7-3.5C301.8,20.2,301.1,19.3,300.2,18.4z"/>
</g>
</svg>
