<?xml version="1.0" encoding="utf-8"?>
<!-- Generator: Adobe Illustrator 23.1.1, SVG Export Plug-In . SVG Version: 6.00 Build 0)  -->
<svg version="1.1" id="Layer_1" xmlns="http://www.w3.org/2000/svg" xmlns:xlink="http://www.w3.org/1999/xlink" x="0px" y="0px"
	 viewBox="0 0 187.7 191.2" style="enable-background:new 0 0 187.7 191.2;" xml:space="preserve">
<g id="Layer_6">
	<path d="M0,0v191.2h187.7V0H0z M138.1,46.6l-5.9,7.9c-0.2,0.2-0.4,0.3-0.7,0.3H71.9c-1.3,0-1.9,0.7-2.1,1.2
		c-0.2,0.4-0.5,1.3,0.1,2.2L93.5,90l14.9-20c0.2-0.2,0.4-0.3,0.7-0.3h10.3c0.3,0,0.6,0.2,0.7,0.5s0.1,0.6-0.1,0.9l-19.2,25.8
		l25.4,34.2c2.7,3.6,3,8.3,0.8,12.2c-2.2,3.9-6.4,6.3-11.1,6.3H50.3c-0.3,0-0.6-0.2-0.7-0.5s-0.1-0.6,0.1-0.9l5.9-7.9
		c0.2-0.2,0.4-0.3,0.7-0.3h59.6c1.3,0,1.9-0.7,2.1-1.2c0.2-0.4,0.5-1.3-0.1-2.2l-23.6-31.8l-14.9,20c-0.2,0.2-0.4,0.3-0.7,0.3H68.4
		c-0.3,0-0.6-0.2-0.7-0.5s-0.1-0.6,0.1-0.9L87,97.9L61.6,63.7c-2.7-3.6-3-8.3-0.8-12.2s6.4-6.3,11.1-6.3h65.6c0.3,0,0.6,0.2,0.7,0.5
		C138.4,46,138.3,46.3,138.1,46.6z"/>
</g>
</svg>
